<svg width="100%" height="100%" id="svg" viewBox="0 0 1440 490" xmlns="http://www.w3.org/2000/svg" class="transition duration-300 ease-in-out delay-150"><defs><linearGradient id="gradient" x1="0%" y1="50%" x2="100%" y2="50%"><stop offset="5%" stop-color="#0693e3"></stop><stop offset="95%" stop-color="#8ED1FC"></stop></linearGradient></defs><path d="M 0,500 C 0,500 0,125 0,125 C 75.51196172248805,121.64114832535886 151.0239234449761,118.28229665071771 261,122 C 370.9760765550239,125.71770334928229 515.4162679425837,136.51196172248802 622,133 C 728.5837320574163,129.48803827751198 797.3110047846891,111.66985645933013 879,116 C 960.6889952153109,120.33014354066987 1055.33971291866,146.80861244019138 1151,152 C 1246.66028708134,157.19138755980862 1343.33014354067,141.0956937799043 1440,125 C 1440,125 1440,500 1440,500 Z" stroke="none" stroke-width="0" fill="url(#gradient)" fill-opacity="0.4" class="transition-all duration-300 ease-in-out delay-150 path-0"></path><defs><linearGradient id="gradient" x1="0%" y1="50%" x2="100%" y2="50%"><stop offset="5%" stop-color="#0693e3"></stop><stop offset="95%" stop-color="#8ED1FC"></stop></linearGradient></defs><path d="M 0,500 C 0,500 0,250 0,250 C 74.11483253588517,261.311004784689 148.22966507177034,272.62200956937795 236,260 C 323.77033492822966,247.37799043062202 425.1961722488038,210.82296650717703 549,216 C 672.8038277511962,221.17703349282297 818.9856459330143,268.0861244019139 917,272 C 1015.0143540669857,275.9138755980861 1064.8612440191387,236.83253588516746 1144,226 C 1223.1387559808613,215.16746411483254 1331.5693779904307,232.58373205741628 1440,250 C 1440,250 1440,500 1440,500 Z" stroke="none" stroke-width="0" fill="url(#gradient)" fill-opacity="0.53" class="transition-all duration-300 ease-in-out delay-150 path-1"></path><defs><linearGradient id="gradient" x1="0%" y1="50%" x2="100%" y2="50%"><stop offset="5%" stop-color="#0693e3"></stop><stop offset="95%" stop-color="#8ED1FC"></stop></linearGradient></defs><path d="M 0,500 C 0,500 0,375 0,375 C 113.11004784688996,351.5071770334928 226.2200956937799,328.0143540669856 308,329 C 389.7799043062201,329.9856459330144 440.22966507177034,355.44976076555025 530,375 C 619.7703349282297,394.55023923444975 748.8612440191388,408.1866028708134 846,404 C 943.1387559808612,399.8133971291866 1008.3253588516745,377.8038277511962 1102,370 C 1195.6746411483255,362.1961722488038 1317.8373205741627,368.5980861244019 1440,375 C 1440,375 1440,500 1440,500 Z" stroke="none" stroke-width="0" fill="url(#gradient)" fill-opacity="1" class="transition-all duration-300 ease-in-out delay-150 path-2"></path></svg>